# xmcd
#
# Track frame offsets: 
#        150
#        12560
#        27167
#        36542
#        43275
#        61427
#        74375
#        84042
#        101912
#        114610
#        124245
#        129482
#        154707
#
# Disc length: 2270 seconds
#
# Revision: 7
# Processed by: cddbd v1.5.2PL0 Copyright (c) Steve Scherf et al.
# Submitted via: ExactAudioCopyFreeDBPlugin 1.0
#
DISCID=b708dc0d
DTITLE=Mississippi John Hurt - The Complete Studio Recordings
DYEAR=2000
DGENRE=Blues
TTITLE0=Since I've Laid My Burden Down
TTITLE1=Moaning the Blues
TTITLE2=Stocktime (Buck Dance)
TTITLE3=Lazy Blues
TTITLE4=Richland Woman Blues
TTITLE5=Wise and Foolish Virgins (Tender Virgins)
TTITLE6=Hop Joint
TTITLE7=Monday Morning Blues
TTITLE8=I've Got the Blues and I Can't Be Satisfied
TTITLE9=Keep on Knocking
TTITLE10=The Chicken
TTITLE11=Stagolee
TTITLE12=Nearer My God to Thee
EXTD=Production supervised by Patrick Sky\nMississippi John Hurt accom
EXTD=panying himself on the guitar\nAll Songs by Mississippi John Hurt
EXTD=Wynwood Music - BMI, except where noted\n
EXTT0=(Traditional) - Public Domain
EXTT1=(Traditional) - Pat Sky, 2nd guitar
EXTT2=
EXTT3=
EXTT4=
EXTT5=
EXTT6=
EXTT7=Pat Sky, 2nd guitar
EXTT8=
EXTT9=
EXTT10=
EXTT11=
EXTT12=(Traditional) - Public Domain
PLAYORDER=
